<svg xmlns="http://www.w3.org/2000/svg" viewBox="0 0 27 27" fill="none">
  <defs><linearGradient id="g" x1="2" y1="13.5" x2="25" y2="13.5" gradientUnits="userSpaceOnUse">
    <stop offset="0" stop-color="#5eead4"/><stop offset="1" stop-color="#818cf8"/>
  </linearGradient></defs>
  <path d="M7.5 3.5V7.5M7.5 12.5V23.5" stroke="#46536e" stroke-linecap="round"/>
  <path d="M13.5 3.5V23.5" stroke="#46536e" stroke-linecap="round"/>
  <path d="M19.5 3.5V7.5M19.5 12.5V23.5" stroke="#46536e" stroke-linecap="round"/>
  <path d="M11.8 15.8C12.4 16.6 12.9 17 13.5 17C14.1 17 14.6 16.6 15.2 15.8" stroke="url(#g)" stroke-width="1.4" stroke-linecap="round" opacity=".35"/>
  <path d="M2.5 13.5C4.5 11 5.7 10 7.5 10C9.8 10 10.4 13.8 11.8 15.8" stroke="url(#g)" stroke-width="1.4" stroke-linecap="round"/>
  <path d="M15.2 15.8C16.6 13.8 17.2 10 19.5 10C21.7 10 23 11 24.5 13.5" stroke="url(#g)" stroke-width="1.4" stroke-linecap="round"/>
  <circle cx="2.5" cy="13.5" r="1.5" fill="#5eead4"/>
  <circle cx="24.5" cy="13.5" r="1.5" fill="#818cf8"/>
</svg>
