<?xml version="1.0" encoding="UTF-8"?><svg id="a" xmlns="http://www.w3.org/2000/svg" viewBox="0 0 27 27"><defs><style>.b{fill:#fff;}.c,.d{fill:none;stroke:#fff;stroke-miterlimit:10;}.d{stroke-linecap:round;}</style></defs><circle class="c" cx="13.5" cy="13.5" r="13"/><circle class="b" cx="13.5" cy="13.5" r="1.24"/><line class="d" x1="7.02" y1="24.72" x2="7.75" y2="23.46"/><line class="d" x1="19.98" y1="2.28" x2="19.25" y2="3.54"/><line class="d" x1="2.28" y1="19.98" x2="3.54" y2="19.25"/><line class="d" x1="24.72" y1="7.02" x2="23.46" y2="7.75"/><line class="d" x1=".54" y1="13.5" x2="2" y2="13.5"/><line class="d" x1="26.46" y1="13.5" x2="25" y2="13.5"/><line class="d" x1="2.28" y1="7.02" x2="3.54" y2="7.75"/><line class="d" x1="24.72" y1="19.98" x2="23.46" y2="19.25"/><line class="d" x1="7.02" y1="2.28" x2="7.75" y2="3.54"/><line class="d" x1="19.98" y1="24.72" x2="19.25" y2="23.46"/><line class="d" x1="13.5" y1=".54" x2="13.5" y2="2"/><line class="d" x1="13.5" y1="26.46" x2="13.5" y2="25"/><line class="d" x1="13.5" y1="3.65" x2="13.53" y2="13.31"/><line class="d" x1="18.63" y1="16.52" x2="13.5" y2="13.5"/></svg>