<?xml version="1.0" encoding="UTF-8"?><svg id="a" xmlns="http://www.w3.org/2000/svg" viewBox="0 0 27 27"><defs><style>.b{stroke-width:.5px;}.b,.c,.d,.e{stroke:#fff;stroke-miterlimit:10;}.b,.c,.e{fill:none;}.b,.d,.e{stroke-linecap:round;}.d{fill:#1e2533;}.f{fill:#fff;opacity:.57;}</style></defs><path class="f" d="M2.25,8.15h9.6c.91,0,1.64.74,1.64,1.64v7.41c0,.91-.74,1.64-1.64,1.64H2.25v-10.7h0Z"/><rect class="c" x=".5" y="5.2" width="26" height="16.6" rx="1.66" ry="1.66"/><line class="e" x1="24.68" y1="7.48" x2="24.68" y2="19.52"/><line class="e" x1="2.25" y1="7.48" x2="2.25" y2="19.52"/><line class="b" x1="24.68" y1="12.68" x2="24.68" y2="14.32"/><line class="b" x1="22.81" y1="12.68" x2="22.81" y2="14.32"/><line class="b" x1="20.94" y1="12.68" x2="20.94" y2="14.32"/><line class="b" x1="19.07" y1="12.68" x2="19.07" y2="14.32"/><line class="b" x1="17.2" y1="12.68" x2="17.2" y2="14.32"/><line class="b" x1="15.33" y1="12.68" x2="15.33" y2="14.32"/><line class="b" x1="13.47" y1="12.68" x2="13.47" y2="14.32"/><line class="b" x1="11.6" y1="12.68" x2="11.6" y2="14.32"/><line class="b" x1="9.73" y1="12.68" x2="9.73" y2="14.32"/><line class="b" x1="7.86" y1="12.68" x2="7.86" y2="14.32"/><line class="b" x1="5.99" y1="12.68" x2="5.99" y2="14.32"/><line class="b" x1="4.12" y1="12.68" x2="4.12" y2="14.32"/><line class="b" x1="2.25" y1="12.68" x2="2.25" y2="14.32"/><circle class="d" cx="13.5" cy="13.5" r="2.74"/></svg>