<?xml version="1.0" encoding="UTF-8"?><svg id="a" xmlns="http://www.w3.org/2000/svg" viewBox="0 0 305.74 356.17"><defs><style>.b{fill:#00cf0e;}.b,.c,.d,.e,.f,.g,.h,.i,.j,.k,.l,.m{stroke-miterlimit:10;}.b,.d,.e,.f,.i,.j,.k,.m{stroke:#fff;}.n,.o,.l,.p{fill:#00d1ee;}.c{fill:#e50505;}.c,.g,.h,.l{stroke:#1e2533;stroke-width:2px;}.d,.q,.h,.r{fill:#fff;}.e{stroke-width:.5px;}.e,.f,.i,.j,.m{fill:none;}.e,.i,.j,.m{stroke-linecap:round;}.s,.k{fill:#1e2533;}.g{fill:#f7e500;}.o,.r{font-family:NeueKabel-Book, 'Neue Kabel';font-size:7.2px;}.o,.r,.j,.t{opacity:.5;}.u{letter-spacing:-.05em;}.p{opacity:.42;}.m{stroke-width:.25px;}</style></defs><path class="p" d="M25.43,144.18h32.88c1.53,0,2.77,1.24,2.77,2.77v8.58c0,1.53-1.24,2.77-2.77,2.77H25.43v-14.11h0Z"/><text class="r" transform="translate(26.55 137.16)"><tspan x="0" y="0">0</tspan></text><text class="r" transform="translate(99.48 137.16)"><tspan x="0" y="0">10</tspan></text><text class="o" transform="translate(56.42 172.2)"><tspan class="u" x="0" y="0">3</tspan><tspan x="3.51" y="0">.5</tspan></text><path class="k" d="M70.28,24.19c0-7.49-6.07-13.57-13.57-13.57s-13.57,6.07-13.57,13.57v25.01c0,7.49,6.07,13.57,13.57,13.57s13.57-6.07,13.57-13.57v-25.01Z"/><path class="d" d="M141.58,49.2c0,7.49,6.07,13.57,13.57,13.57s13.57-6.07,13.57-13.57v-25.01c0-7.49-6.07-13.57-13.57-13.57s-13.57,6.07-13.57,13.57v25.01Z"/><path class="s" d="M155.15,33.57c-5.17,0-9.38-4.21-9.38-9.38s4.21-9.38,9.38-9.38,9.38,4.21,9.38,9.38-4.21,9.38-9.38,9.38Z"/><path class="s" d="M155.15,15.31c4.9,0,8.88,3.98,8.88,8.88s-3.98,8.88-8.88,8.88-8.88-3.98-8.88-8.88,3.98-8.88,8.88-8.88M155.15,14.31c-5.46,0-9.88,4.42-9.88,9.88s4.42,9.88,9.88,9.88,9.88-4.42,9.88-9.88-4.42-9.88-9.88-9.88h0Z"/><circle class="b" cx="54.08" cy="95.94" r="18.11"/><circle class="q" cx="56.71" cy="49.2" r="9.88"/><circle class="c" cx="70.74" cy="36.7" r="3.7"/><circle class="g" cx="72.2" cy="95.94" r="3.7"/><circle class="c" cx="169.34" cy="36.7" r="3.7"/><rect class="f" x="22.51" y="139.94" width="92.02" height="22.58" rx="3.35" ry="3.35"/><line class="i" x1="107.83" y1="144.18" x2="107.83" y2="158.29"/><line class="i" x1="25.43" y1="144.18" x2="25.43" y2="158.29"/><g class="t"><line class="m" x1="107.83" y1="131.46" x2="107.83" y2="158.29"/><line class="m" x1="25.43" y1="131.46" x2="25.43" y2="158.29"/></g><line class="e" x1="107.83" y1="148.31" x2="107.83" y2="154.16"/><line class="e" x1="99.59" y1="148.31" x2="99.59" y2="154.16"/><line class="e" x1="91.35" y1="148.31" x2="91.35" y2="154.16"/><line class="e" x1="83.11" y1="148.31" x2="83.11" y2="154.16"/><line class="e" x1="74.87" y1="148.31" x2="74.87" y2="154.16"/><line class="e" x1="66.63" y1="148.31" x2="66.63" y2="154.16"/><line class="e" x1="58.39" y1="148.31" x2="58.39" y2="154.16"/><line class="e" x1="50.15" y1="148.31" x2="50.15" y2="154.16"/><line class="e" x1="41.91" y1="148.31" x2="41.91" y2="154.16"/><line class="e" x1="33.67" y1="148.31" x2="33.67" y2="154.16"/><line class="e" x1="25.43" y1="148.31" x2="25.43" y2="154.16"/><line class="e" x1="107.83" y1="150.7" x2="107.83" y2="151.77"/><line class="e" x1="103.71" y1="150.7" x2="103.71" y2="151.77"/><line class="e" x1="99.59" y1="150.7" x2="99.59" y2="151.77"/><line class="e" x1="95.47" y1="150.7" x2="95.47" y2="151.77"/><line class="e" x1="91.35" y1="150.7" x2="91.35" y2="151.77"/><line class="e" x1="87.23" y1="150.7" x2="87.23" y2="151.77"/><line class="e" x1="83.11" y1="150.7" x2="83.11" y2="151.77"/><line class="e" x1="78.99" y1="150.7" x2="78.99" y2="151.77"/><line class="e" x1="74.87" y1="150.7" x2="74.87" y2="151.77"/><line class="e" x1="70.75" y1="150.7" x2="70.75" y2="151.77"/><line class="e" x1="66.63" y1="150.7" x2="66.63" y2="151.77"/><line class="e" x1="62.51" y1="150.7" x2="62.51" y2="151.77"/><line class="e" x1="58.39" y1="150.7" x2="58.39" y2="151.77"/><line class="e" x1="54.27" y1="150.7" x2="54.27" y2="151.77"/><line class="e" x1="50.15" y1="150.7" x2="50.15" y2="151.77"/><line class="e" x1="46.03" y1="150.7" x2="46.03" y2="151.77"/><line class="e" x1="41.91" y1="150.7" x2="41.91" y2="151.77"/><line class="e" x1="37.79" y1="150.7" x2="37.79" y2="151.77"/><line class="e" x1="33.67" y1="150.7" x2="33.67" y2="151.77"/><line class="e" x1="29.55" y1="150.7" x2="29.55" y2="151.77"/><line class="e" x1="25.43" y1="150.7" x2="25.43" y2="151.77"/><circle class="n" cx="61.08" cy="151.23" r="4.57"/><circle class="l" cx="114.52" cy="151.23" r="3.7"/><path class="p" d="M131.08,144.18h56.94c1.53,0,2.77,1.24,2.77,2.77v8.58c0,1.53-1.24,2.77-2.77,2.77h-56.94v-14.11h0Z"/><rect class="f" x="128.16" y="139.94" width="92.02" height="22.58" rx="3.35" ry="3.35"/><line class="i" x1="213.48" y1="144.18" x2="213.48" y2="158.29"/><line class="i" x1="131.08" y1="144.18" x2="131.08" y2="158.29"/><line class="e" x1="213.48" y1="148.31" x2="213.48" y2="154.16"/><line class="e" x1="205.24" y1="148.31" x2="205.24" y2="154.16"/><line class="e" x1="197" y1="148.31" x2="197" y2="154.16"/><line class="e" x1="188.76" y1="148.31" x2="188.76" y2="154.16"/><line class="e" x1="180.52" y1="148.31" x2="180.52" y2="154.16"/><line class="e" x1="172.28" y1="148.31" x2="172.28" y2="154.16"/><line class="e" x1="164.04" y1="148.31" x2="164.04" y2="154.16"/><line class="e" x1="155.8" y1="148.31" x2="155.8" y2="154.16"/><line class="e" x1="147.56" y1="148.31" x2="147.56" y2="154.16"/><line class="e" x1="139.32" y1="148.31" x2="139.32" y2="154.16"/><line class="e" x1="131.08" y1="148.31" x2="131.08" y2="154.16"/><line class="e" x1="213.48" y1="150.7" x2="213.48" y2="151.77"/><line class="e" x1="209.36" y1="150.7" x2="209.36" y2="151.77"/><line class="e" x1="205.24" y1="150.7" x2="205.24" y2="151.77"/><line class="e" x1="201.12" y1="150.7" x2="201.12" y2="151.77"/><line class="e" x1="197" y1="150.7" x2="197" y2="151.77"/><line class="e" x1="192.88" y1="150.7" x2="192.88" y2="151.77"/><line class="e" x1="188.76" y1="150.7" x2="188.76" y2="151.77"/><line class="e" x1="184.64" y1="150.7" x2="184.64" y2="151.77"/><line class="e" x1="180.52" y1="150.7" x2="180.52" y2="151.77"/><line class="e" x1="176.4" y1="150.7" x2="176.4" y2="151.77"/><line class="e" x1="172.28" y1="150.7" x2="172.28" y2="151.77"/><line class="e" x1="168.16" y1="150.7" x2="168.16" y2="151.77"/><line class="e" x1="164.04" y1="150.7" x2="164.04" y2="151.77"/><line class="e" x1="159.92" y1="150.7" x2="159.92" y2="151.77"/><line class="e" x1="155.8" y1="150.7" x2="155.8" y2="151.77"/><line class="e" x1="151.68" y1="150.7" x2="151.68" y2="151.77"/><line class="e" x1="147.56" y1="150.7" x2="147.56" y2="151.77"/><line class="e" x1="143.44" y1="150.7" x2="143.44" y2="151.77"/><line class="e" x1="139.32" y1="150.7" x2="139.32" y2="151.77"/><line class="e" x1="135.2" y1="150.7" x2="135.2" y2="151.77"/><line class="e" x1="131.08" y1="150.7" x2="131.08" y2="151.77"/><circle class="n" cx="190.73" cy="151.23" r="4.57"/><circle class="l" cx="220.17" cy="151.23" r="3.7"/><rect class="f" x="22.51" y="209.06" width="87.78" height="68.66" rx="4.3" ry="4.3"/><line class="j" x1="107.98" y1="272.92" x2="105.49" y2="275.41"/><circle class="h" cx="22.51" cy="221.42" r="3.7"/><circle class="h" cx="110.29" cy="221.42" r="3.7"/></svg>